<svg class="icon" viewBox="0 0 1024 1024" version="1.1" xmlns="http://www.w3.org/2000/svg" width="64" height="64"><path d="M668.8 460.8c64 0 118.4-54.4 118.4-118.4S732.8 224 668.8 224s-118.4 54.4-118.4 118.4c0 12.8 3.2 22.4 6.4 35.2L502.4 416c-22.4-28.8-57.6-48-92.8-57.6v-64c54.4-12.8 92.8-60.8 92.8-115.2 0-64-54.4-118.4-118.4-118.4s-118.4 54.4-118.4 118.4c0 54.4 38.4 102.4 92.8 115.2v67.2c-80 16-134.4 96-118.4 176 12.8 60.8 57.6 105.6 118.4 118.4v70.4c-54.4 12.8-92.8 57.6-92.8 115.2 0 64 54.4 118.4 118.4 118.4s118.4-54.4 118.4-118.4c0-54.4-38.4-102.4-92.8-115.2v-70.4c35.2-6.4 70.4-22.4 92.8-54.4l54.4 41.6c-3.2 9.6-6.4 22.4-6.4 35.2 3.2 64 54.4 115.2 121.6 115.2 64-3.2 115.2-54.4 115.2-121.6-3.2-64-54.4-115.2-118.4-115.2-35.2 0-67.2 16-89.6 41.6l-54.4-41.6c6.4-16 9.6-35.2 9.6-54.4 0-16-3.2-35.2-9.6-48l54.4-38.4c19.2 32 54.4 48 89.6 44.8z m0-176c32 0 54.4 25.6 54.4 54.4s-25.6 54.4-54.4 54.4c-32 0-54.4-25.6-54.4-54.4-3.2-28.8 22.4-54.4 54.4-54.4z m-345.6-105.6c0-32 25.6-54.4 54.4-54.4 32 0 54.4 25.6 54.4 54.4s-25.6 54.4-54.4 54.4c-28.8 3.2-54.4-22.4-54.4-54.4z m115.2 662.4c0 32-22.4 57.6-54.4 57.6s-57.6-22.4-57.6-54.4 22.4-57.6 54.4-57.6 57.6 25.6 57.6 54.4z m-54.4-249.6c-44.8-3.2-76.8-41.6-73.6-86.4 3.2-38.4 35.2-70.4 73.6-73.6 44.8 0 80 35.2 80 80 0 41.6-38.4 76.8-80 80z m284.8 32c28.8 0 54.4 22.4 54.4 54.4s-22.4 54.4-51.2 54.4h-3.2c-32 0-54.4-25.6-54.4-57.6s25.6-54.4 54.4-54.4v3.2z" fill="#0171F1"></path></svg>